<svg id="Layer_1" enable-background="new 0 0 512 512" height="512" viewBox="0 0 512 512" width="512" xmlns="http://www.w3.org/2000/svg"><g><g><path d="m184.208 219.596c-3.705-7.41-.701-16.419 6.708-20.125l116.751-58.375c7.409-3.705 16.419-.702 20.125 6.708 3.705 7.41.701 16.419-6.708 20.125l-116.751 58.375c-7.385 3.693-16.408.726-20.125-6.708z" fill="#25201c"/></g><g><path d="m307.667 370.904-116.751-58.375c-7.41-3.705-10.413-12.715-6.708-20.125s12.716-10.414 20.125-6.708l116.751 58.375c7.41 3.705 10.413 12.715 6.708 20.125-3.71 7.42-12.725 10.408-20.125 6.708z" fill="#25201c"/></g><path d="m33.19 335.247h156.42c20.477-20.212 33.19-48.271 33.19-79.248 0-61.426-49.974-111.4-111.4-111.4s-111.4 49.974-111.4 111.401c0 30.976 12.713 59.036 33.19 79.247z" fill="#00e0e2"/><path d="m189.61 335.247c20.477-20.212 33.19-48.271 33.19-79.248 0-61.426-49.974-111.4-111.4-111.4v190.647h78.21z" fill="#00bccf"/><circle cx="111.4" cy="256" fill="#c35e48" r="47.133"/><path d="m33.19 335.247c20.129 19.868 47.76 32.153 78.21 32.153s58.081-12.285 78.21-32.153c-20.778-20.484-48.903-32.114-78.21-32.114-29.307.001-57.432 11.63-78.21 32.114z" fill="#ffcc74"/><path d="m111.4 208.866c25.989 0 47.133 21.144 47.133 47.133 0 25.99-21.144 47.134-47.133 47.134z" fill="#954735"/><path d="m111.4 367.4c30.45 0 58.081-12.285 78.21-32.153-20.778-20.484-48.903-32.114-78.21-32.114z" fill="#ffa659"/><path d="m322.39 190.647h156.42c20.477-20.211 33.19-48.271 33.19-79.247 0-61.426-49.974-111.4-111.4-111.4s-111.4 49.974-111.4 111.4c0 30.976 12.713 59.036 33.19 79.247z" fill="#ff6b61"/><path d="m478.81 190.647c20.477-20.211 33.19-48.271 33.19-79.247 0-61.426-49.974-111.4-111.4-111.4v190.647z" fill="#ee3368"/><circle cx="400.6" cy="111.4" fill="#ffd6d8" r="47.133"/><path d="m322.39 190.647c20.129 19.868 47.76 32.153 78.21 32.153s58.081-12.285 78.21-32.153c-20.778-20.484-48.903-32.114-78.21-32.114-29.307.001-57.431 11.631-78.21 32.114z" fill="#00e0e2"/><path d="m400.6 64.267c25.989 0 47.133 21.144 47.133 47.133 0 25.99-21.144 47.134-47.133 47.134z" fill="#ffb7be"/><path d="m400.6 222.8c30.45 0 58.081-12.285 78.21-32.153-20.778-20.484-48.903-32.114-78.21-32.114z" fill="#00bccf"/><path d="m322.39 479.847h156.42c20.477-20.212 33.19-48.271 33.19-79.247 0-61.426-49.974-111.4-111.4-111.4s-111.4 49.974-111.4 111.4c0 30.976 12.713 59.035 33.19 79.247z" fill="#ffcc74"/><path d="m478.81 479.847c20.477-20.212 33.19-48.271 33.19-79.247 0-61.426-49.974-111.4-111.4-111.4v190.647z" fill="#ffa659"/><circle cx="400.6" cy="400.6" fill="#f49e99" r="47.133"/><path d="m322.39 479.847c20.129 19.868 47.76 32.153 78.21 32.153s58.081-12.285 78.21-32.153c-20.778-20.484-48.903-32.114-78.21-32.114s-57.431 11.63-78.21 32.114z" fill="#ff6b61"/><path d="m400.6 353.466c25.989 0 47.133 21.144 47.133 47.133 0 25.99-21.144 47.134-47.133 47.134z" fill="#e58783"/><path d="m400.6 512c30.45 0 58.081-12.285 78.21-32.153-20.778-20.484-48.903-32.114-78.21-32.114z" fill="#ee3368"/></g></svg>